<svg xmlns="http://www.w3.org/2000/svg" viewBox="0 0 45.784 45.784"><path d="M34.418 24.116c0-1.68-1.361-3-3.042-3h-5.447V16a3.044 3.044 0 0 0-3.045-3.043A3.044 3.044 0 0 0 19.839 16v8.113c0 1.682 1.384 3.003 3.064 3.003h8.474c1.679 0 3.041-1.319 3.041-3"/><path d="M40.791 38.321c7.184-8.988 6.617-22.173-1.705-30.497-4.322-4.32-10.074-6.701-16.203-6.701-6.127 0-11.881 2.38-16.2 6.701-8.024 8.024-8.936 20.906-2.119 29.966a3.7 3.7 0 0 0 2.704 1.472 3.74 3.74 0 0 0 2.922-1.109 3.94 3.94 0 0 0 .394-5.137c-4.393-6.002-3.736-14.497 1.528-19.761A15.13 15.13 0 0 1 22.883 8.8c4.076 0 7.9 1.582 10.771 4.454 5.323 5.324 5.874 13.64 1.654 19.583l-1.413-1.412a2.86 2.86 0 0 0-3.099-.619 2.84 2.84 0 0 0-1.747 2.644v8.351c0 1.578 1.244 2.86 2.822 2.86h8.35a2.85 2.85 0 0 0 2.645-1.767 2.85 2.85 0 0 0-.62-3.117z"/></svg>